<?xml version="1.0" standalone="no"?><!DOCTYPE svg PUBLIC "-//W3C//DTD SVG 1.1//EN" "http://www.w3.org/Graphics/SVG/1.1/DTD/svg11.dtd"><svg t="1776314247262" class="icon" viewBox="0 0 1024 1024" version="1.1" xmlns="http://www.w3.org/2000/svg" p-id="2363" width="128" height="128" xmlns:xlink="http://www.w3.org/1999/xlink"><path d="M663.04 80H156.16A92.16 92.16 0 0 0 64 172.16v506.88a92.16 92.16 0 0 0 92.16 92.16h506.88a92.16 92.16 0 0 0 92.16-92.16V172.16A92.16 92.16 0 0 0 663.04 80z" fill="#0065F3" p-id="2364"></path><path d="M855.04 272H348.16A92.16 92.16 0 0 0 256 364.16v506.88a92.16 92.16 0 0 0 92.16 92.16h506.88a92.16 92.16 0 0 0 92.16-92.16V364.16A92.16 92.16 0 0 0 855.04 272z" fill="#82B6FA" opacity=".4" p-id="2365"></path><path d="M348.16 280h506.88a84.16 84.16 0 0 1 84.16 84.16v506.88a84.16 84.16 0 0 1-84.16 84.16H348.16a84.16 84.16 0 0 1-84.16-84.16V364.16a84.16 84.16 0 0 1 84.16-84.16z m607.04 84.16a100.16 100.16 0 0 0-100.16-100.16H348.16a100.16 100.16 0 0 0-100.16 100.16v506.88a100.16 100.16 0 0 0 100.16 100.16h506.88a100.16 100.16 0 0 0 100.16-100.16V364.16z" fill="#FFFFFF" opacity=".4" p-id="2366"></path><path d="M570.976 828.848c11.648 6.88 20.8 2.288 20.8-11.648V655.168c0-13.936-9.36-27.872-20.8-34.752L436.8 537.008c-11.648-4.576-20.8 0-20.8 11.648V710.72c0 13.92 9.36 27.872 20.8 34.736l134.176 83.408zM457.6 486.048c-11.648 6.88-11.648 16.224 0 23.088l132.096 83.408c11.648 6.88 27.872 6.88 39.312 2.288l132.08-67.184c11.648-6.864 11.648-16.224 0-23.088l-139.152-83.408c-9.36-6.88-27.872-6.88-39.312 0L457.6 486.048z m171.408 331.152c0 13.936 9.36 18.512 20.8 11.648l132.08-67.184c11.648-6.864 20.8-20.8 20.8-34.736v-162.24c0-13.952-9.36-18.528-20.8-11.664l-132.08 67.2c-11.648 6.864-20.8 20.8-20.8 34.72v162.256z" fill="#FFFFFF" p-id="2367"></path></svg>